<?xml version="1.0"?><svg width="533.3333333333333" height="533.3333333333333" xmlns="http://www.w3.org/2000/svg">
 <title>NO TIME WASTING</title>
 <g>
  <title>Layer 1</title>
  <path d="m478.327148,251.24028a228.091248,226.614883 0 1 0 -456.182499,0a228.091141,226.615372 0 1 0 456.18256,-0.000198l-228.091324,0.000198l228.091263,0z" id="path566" stroke-width="37.1167" stroke="#bf0000" fill-rule="evenodd" fill="none"/>
  <path d="m465.611267,249.240189a209.637207,208.899094 0 1 0 -419.274418,0a209.636932,208.899429 0 1 0 419.274326,0.000381l-209.637115,-0.000381l209.637207,0z" id="path575" stroke-width="1pt" fill="#ffffff" fill-rule="evenodd"/>
  <path d="m117.569962,339.138519c0,-1.817993 -11.812988,-66.340973 0,-91.786972c21.811005,-39.078003 31.807007,-74.518997 33.625,-104.51001c0.908997,0.908997 1.818008,48.165009 -1.817993,53.618011c-10.904999,20.901993 -21.810005,44.530991 -29.080002,67.249985c0,44.529999 -1.817993,79.063995 -2.727005,75.428986z" id="path564" fill-opacity="0.577778" stroke-width="1pt" fill-rule="evenodd" fill="#ffffff"/>
  <path d="m112.200783,91.059647l292.310997,307.074509" id="path567" stroke-width="37.5" stroke="#bf0000" fill-rule="evenodd" fill="none"/>
  <text fill="#000000" stroke-width="0" stroke-dasharray="null" x="96.666687" y="238.666687" id="svg_1" font-size="24" font-family="Arial" text-anchor="middle" xml:space="preserve" transform="matrix(-1.92857 0 0 1.25 263.571 -54.25)"/>
  <text font-weight="bold" fill="#000000" stroke-width="0" stroke-dasharray="null" x="95.764835" y="276.183983" id="svg_2" font-size="24" font-family="Arial" text-anchor="middle" xml:space="preserve" transform="matrix(2.35684 0 0 2.17755 28.0041 -329.696)">TIME WASTING</text>
 </g>
</svg>