<?xml version="1.0" encoding="UTF-8"?><svg xmlns="http://www.w3.org/2000/svg" xmlns:xlink="http://www.w3.org/1999/xlink" fill-opacity="1" color-rendering="auto" color-interpolation="auto" text-rendering="auto" stroke="black" stroke-linecap="square" width="419" stroke-miterlimit="10" shape-rendering="auto" stroke-opacity="1" fill="black" stroke-dasharray="none" font-weight="normal" stroke-width="1" height="219" font-family="'Dialog'" font-style="normal" stroke-linejoin="miter" font-size="12px" stroke-dashoffset="0" image-rendering="auto">
  <!--Generated by ySVG 2.5-->
  <defs id="genericDefs"/>
  <g>
    <defs id="defs1">
      <clipPath clipPathUnits="userSpaceOnUse" id="clipPath1">
        <path d="M0 0 L419 0 L419 219 L0 219 L0 0 Z"/>
      </clipPath>
      <clipPath clipPathUnits="userSpaceOnUse" id="clipPath2">
        <path d="M-110 51 L309 51 L309 270 L-110 270 L-110 51 Z"/>
      </clipPath>
    </defs>
    <g fill="white" text-rendering="geometricPrecision" shape-rendering="geometricPrecision" transform="translate(110,-51)" stroke="white">
      <rect x="-110" width="419" height="219" y="51" clip-path="url(#clipPath2)" stroke="none"/>
    </g>
    <g fill="rgb(153,204,255)" text-rendering="geometricPrecision" shape-rendering="geometricPrecision" transform="matrix(1,0,0,1,110,-51)" stroke="rgb(153,204,255)">
      <rect x="-76" y="137" clip-path="url(#clipPath2)" width="370" rx="4" ry="4" height="16" stroke="none"/>
    </g>
    <g text-rendering="geometricPrecision" stroke-miterlimit="1.45" shape-rendering="geometricPrecision" transform="matrix(1,0,0,1,110,-51)" stroke-linecap="butt">
      <rect x="-76" y="137" clip-path="url(#clipPath2)" fill="none" width="370" rx="4" ry="4" height="16"/>
      <text x="1.9668" xml:space="preserve" y="149.1543" clip-path="url(#clipPath2)" font-family="sans-serif" stroke="none">K8S Flat Network 192.168.170.0/24</text>
    </g>
    <g fill="silver" text-rendering="geometricPrecision" shape-rendering="geometricPrecision" transform="matrix(1,0,0,1,110,-51)" stroke="silver">
      <rect x="-70" y="66" clip-path="url(#clipPath2)" width="51" rx="4" ry="4" height="41" stroke="none"/>
    </g>
    <g text-rendering="geometricPrecision" stroke-miterlimit="1.45" shape-rendering="geometricPrecision" transform="matrix(1,0,0,1,110,-51)" stroke-linecap="butt">
      <rect x="-70" y="66" clip-path="url(#clipPath2)" fill="none" width="51" rx="4" ry="4" height="41"/>
      <text x="-64.9902" xml:space="preserve" y="90.6543" clip-path="url(#clipPath2)" font-family="sans-serif" stroke="none">Master</text>
      <text x="-92.2129" xml:space="preserve" y="127.1543" clip-path="url(#clipPath2)" font-family="sans-serif" stroke="none">192.168.170.10</text>
    </g>
    <g fill="silver" text-rendering="geometricPrecision" shape-rendering="geometricPrecision" transform="matrix(1,0,0,1,110,-51)" stroke="silver">
      <rect x="72" y="66" clip-path="url(#clipPath2)" width="51" rx="4" ry="4" height="41" stroke="none"/>
    </g>
    <g text-rendering="geometricPrecision" stroke-miterlimit="1.45" shape-rendering="geometricPrecision" transform="matrix(1,0,0,1,110,-51)" stroke-linecap="butt">
      <rect x="72" y="66" clip-path="url(#clipPath2)" fill="none" width="51" rx="4" ry="4" height="41"/>
      <text x="77.0098" xml:space="preserve" y="90.6543" clip-path="url(#clipPath2)" font-family="sans-serif" stroke="none">Master</text>
      <text x="43.2871" xml:space="preserve" y="127.1543" clip-path="url(#clipPath2)" font-family="sans-serif" stroke="none">192.168.170.11</text>
    </g>
    <g fill="silver" text-rendering="geometricPrecision" shape-rendering="geometricPrecision" transform="matrix(1,0,0,1,110,-51)" stroke="silver">
      <rect x="200" y="66" clip-path="url(#clipPath2)" width="51" rx="4" ry="4" height="41" stroke="none"/>
    </g>
    <g text-rendering="geometricPrecision" stroke-miterlimit="1.45" shape-rendering="geometricPrecision" transform="matrix(1,0,0,1,110,-51)" stroke-linecap="butt">
      <rect x="200" y="66" clip-path="url(#clipPath2)" fill="none" width="51" rx="4" ry="4" height="41"/>
      <text x="205.0098" xml:space="preserve" y="90.6543" clip-path="url(#clipPath2)" font-family="sans-serif" stroke="none">Master</text>
      <text x="169.2871" xml:space="preserve" y="129.1699" clip-path="url(#clipPath2)" font-family="sans-serif" stroke="none">192.168.170.12</text>
    </g>
    <g fill="silver" text-rendering="geometricPrecision" shape-rendering="geometricPrecision" transform="matrix(1,0,0,1,110,-51)" stroke="silver">
      <rect x="-48" y="183" clip-path="url(#clipPath2)" width="51" rx="4" ry="4" height="41" stroke="none"/>
    </g>
    <g text-rendering="geometricPrecision" stroke-miterlimit="1.45" shape-rendering="geometricPrecision" transform="matrix(1,0,0,1,110,-51)" stroke-linecap="butt">
      <rect x="-48" y="183" clip-path="url(#clipPath2)" fill="none" width="51" rx="4" ry="4" height="41"/>
      <text x="-38.1592" xml:space="preserve" y="207.6543" clip-path="url(#clipPath2)" font-family="sans-serif" stroke="none">Node</text>
      <text x="-70.2129" xml:space="preserve" y="244.1543" clip-path="url(#clipPath2)" font-family="sans-serif" stroke="none">192.168.170.20</text>
    </g>
    <g fill="silver" text-rendering="geometricPrecision" shape-rendering="geometricPrecision" transform="matrix(1,0,0,1,110,-51)" stroke="silver">
      <rect x="94" y="183" clip-path="url(#clipPath2)" width="51" rx="4" ry="4" height="41" stroke="none"/>
    </g>
    <g text-rendering="geometricPrecision" stroke-miterlimit="1.45" shape-rendering="geometricPrecision" transform="matrix(1,0,0,1,110,-51)" stroke-linecap="butt">
      <rect x="94" y="183" clip-path="url(#clipPath2)" fill="none" width="51" rx="4" ry="4" height="41"/>
      <text x="103.8408" xml:space="preserve" y="207.6543" clip-path="url(#clipPath2)" font-family="sans-serif" stroke="none">Node</text>
      <text x="65.2871" xml:space="preserve" y="244.1543" clip-path="url(#clipPath2)" font-family="sans-serif" stroke="none">192.168.170.21</text>
    </g>
    <g fill="silver" text-rendering="geometricPrecision" shape-rendering="geometricPrecision" transform="matrix(1,0,0,1,110,-51)" stroke="silver">
      <rect x="222" y="183" clip-path="url(#clipPath2)" width="51" rx="4" ry="4" height="41" stroke="none"/>
    </g>
    <g text-rendering="geometricPrecision" stroke-miterlimit="1.45" shape-rendering="geometricPrecision" transform="matrix(1,0,0,1,110,-51)" stroke-linecap="butt">
      <rect x="222" y="183" clip-path="url(#clipPath2)" fill="none" width="51" rx="4" ry="4" height="41"/>
      <text x="231.8408" xml:space="preserve" y="207.6543" clip-path="url(#clipPath2)" font-family="sans-serif" stroke="none">Node</text>
      <text x="191.2871" xml:space="preserve" y="246.1699" clip-path="url(#clipPath2)" font-family="sans-serif" stroke="none">192.168.170.22</text>
      <path fill="none" d="M-44.5 106.9631 L-44.5 136.9922" clip-path="url(#clipPath2)"/>
      <path fill="none" d="M97.5 106.9631 L97.5 136.9922" clip-path="url(#clipPath2)"/>
      <path fill="none" d="M225.5 107.0066 L225.5 137.0035" clip-path="url(#clipPath2)"/>
      <path fill="none" d="M-22.5 183.0305 L-22.5 153.0215" clip-path="url(#clipPath2)"/>
      <path fill="none" d="M119.5 183.0193 L119.5 152.9826" clip-path="url(#clipPath2)"/>
      <path fill="none" d="M247.5 183.0193 L247.5 152.9826" clip-path="url(#clipPath2)"/>
    </g>
  </g>
</svg>
